<?xml version="1.0" encoding="utf-8"?>
<!-- Generator: Adobe Illustrator 22.1.0, SVG Export Plug-In . SVG Version: 6.00 Build 0)  -->
<svg version="1.1" id="Layer_1" xmlns="http://www.w3.org/2000/svg" xmlns:xlink="http://www.w3.org/1999/xlink" x="0px" y="0px"
	 viewBox="0 0 100 100" style="enable-background:new 0 0 100 100;" xml:space="preserve">
<style type="text/css">
	.st0{display:none;}
	.st1{display:inline;}
	.st2{fill:#FF0000;}
	.st3{fill:#FFFFFF;}
</style>
<g class="st0">
	<g class="st1">
		<path d="M96.3,20.9C90.5,11,78.9,5.2,68,8.2c-6.5,1.8-12.4,5.5-18.6,8.3c-3.8-2.2-7.8-5.1-12.3-6.9C25.1,4.7,12.2,8.7,5,18.9
			c-7.2,10.2-6.8,21.8,2.4,31.4c13.8,14.4,28.3,28.1,42.7,42.3c14.3-14.1,28.7-27.9,42.6-42.3C101.2,41.6,102.1,30.9,96.3,20.9z
			 M89,43.2c-3.2,4.4-7.3,8.3-11.2,12.2c-9,9.2-18.1,18.2-27.4,27.6c-13-12.9-25.7-24.9-37.7-37.4c-6.8-7.1-7.1-14.6-2.1-22.1
			c5-7.5,14-11,22.3-7.5c6.2,2.6,11.7,6.9,17.4,10.4c4.5-3,9.3-6.8,14.6-9.7c6.6-3.6,13.4-2.7,19.6,1.6C93.2,24.3,95.2,34.7,89,43.2
			z"/>
		<path class="st2" d="M89,43.2c-3.2,4.4-7.3,8.3-11.2,12.2c-9,9.2-18.1,18.2-27.4,27.6c-13-12.9-25.7-24.9-37.7-37.4
			c-6.8-7.1-7.1-14.6-2.1-22.1c5-7.5,14-11,22.3-7.5c6.2,2.6,11.7,6.9,17.4,10.4c4.5-3,9.3-6.8,14.6-9.7c6.6-3.6,13.4-2.7,19.6,1.6
			C93.2,24.3,95.2,34.7,89,43.2z"/>
	</g>
</g>
<g>
	<g>
		<path d="M21.4,96.5c0-5,0-9.8,0-14.6c0-2.9,0-5.9,0-8.8c0-1-0.2-1.5-1.1-2c-5.4-3-10.1-6.7-13.9-11.7C-2.2,48-2.1,33.8,6.6,22.5
			c5.2-6.8,12-11.5,20-14.5c17-6.4,34-6,50.6,1.6c7.4,3.4,13.6,8.4,18,15.4c7.1,11.3,6.4,24.2-1.8,34.8C87.6,67.3,79.9,72.1,71,75.2
			c-8,2.8-16.2,3.9-24.6,3.3c-0.5,0-1.2,0.2-1.6,0.5c-7.4,5.5-14.8,11-22.1,16.6C22.3,95.8,22,96.1,21.4,96.5z M28.6,82.2
			c0.6-0.4,0.9-0.7,1.3-0.9c4.2-3.2,8.4-6.4,12.7-9.5c0.5-0.4,1.2-0.6,1.8-0.5c6.8,0.6,13.5,0.2,20.1-1.6
			c8.5-2.2,16.2-6.1,22.1-12.8c7.8-8.8,8.3-20.4,1.3-29.8c-3.7-5-8.6-8.6-14.1-11.1C61.3,10.2,48.3,9.3,35,12.8
			c-7.9,2-14.9,5.7-20.6,11.6C4.9,34.2,4.7,47.5,14,57.5c3.3,3.5,7.1,6.3,11.4,8.4c1,0.5,2.5,0.8,2.9,1.6c0.5,0.9,0.2,2.3,0.2,3.5
			C28.6,74.7,28.6,78.3,28.6,82.2z"/>
		<path class="st3" d="M28.6,82.2c0-3.9,0-7.5,0-11.1c0-1.2,0.3-2.6-0.2-3.5c-0.5-0.8-1.9-1.1-2.9-1.6c-4.3-2.2-8.2-4.9-11.4-8.4
			c-9.3-10.1-9.1-23.3,0.3-33.2C20,18.4,27.1,14.8,35,12.8c13.3-3.4,26.3-2.6,38.8,3.2c5.6,2.6,10.4,6.2,14.1,11.1
			c7,9.4,6.5,21-1.3,29.8c-6,6.7-13.6,10.6-22.1,12.8c-6.6,1.7-13.3,2.2-20.1,1.6c-0.6-0.1-1.3,0.2-1.8,0.5
			c-4.3,3.1-8.5,6.3-12.7,9.5C29.5,81.5,29.1,81.8,28.6,82.2z"/>
	</g>
</g>
</svg>
