<?xml version="1.0" encoding="utf-8"?>
<!-- Generator: Adobe Illustrator 22.1.0, SVG Export Plug-In . SVG Version: 6.00 Build 0)  -->
<svg version="1.1" id="Layer_1" xmlns="http://www.w3.org/2000/svg" xmlns:xlink="http://www.w3.org/1999/xlink" x="0px" y="0px"
	 viewBox="0 0 100 100" style="enable-background:new 0 0 100 100;" xml:space="preserve">
<g>
	<g>
		<path d="M50.1,92.6C35.7,78.5,21.2,64.7,7.4,50.3C-1.8,40.7-2.2,29.1,5,18.9C12.2,8.7,25.1,4.7,37.1,9.5c4.5,1.8,8.5,4.8,12.3,6.9
			c6.2-2.8,12.1-6.5,18.6-8.3C78.9,5.2,90.6,11,96.3,20.9c5.8,10,4.9,20.7-3.5,29.4C78.8,64.6,64.4,78.5,50.1,92.6z M50.4,83
			c9.3-9.3,18.4-18.4,27.4-27.6c3.9-4,8-7.8,11.2-12.2c6.2-8.5,4.2-18.8-4.5-24.9c-6.2-4.3-13-5.2-19.6-1.6
			c-5.3,2.8-10.1,6.6-14.6,9.7c-5.7-3.5-11.2-7.8-17.4-10.4c-8.3-3.6-17.3,0-22.3,7.5c-5,7.5-4.7,15.1,2.1,22.2
			C24.8,58.1,37.4,70.1,50.4,83z"/>
	</g>
</g>
</svg>
