<?xml version="1.0" encoding="utf-8"?>
<!-- Generator: Adobe Illustrator 22.1.0, SVG Export Plug-In . SVG Version: 6.00 Build 0)  -->
<svg version="1.1" id="Layer_1" xmlns="http://www.w3.org/2000/svg" xmlns:xlink="http://www.w3.org/1999/xlink" x="0px" y="0px"
	 viewBox="0 0 100 100" style="enable-background:new 0 0 100 100;" xml:space="preserve">
<style type="text/css">
	.st0{display:none;}
	.st1{display:inline;}
	.st2{fill:#FF0000;}
	.st3{fill:#FFFFFF;}
</style>
<g class="st0">
	<g class="st1">
		<path d="M96.3,20.9C90.5,11,78.9,5.2,68,8.2c-6.5,1.8-12.4,5.5-18.6,8.3c-3.8-2.2-7.8-5.1-12.3-6.9C25.1,4.7,12.2,8.7,5,18.9
			c-7.2,10.2-6.8,21.8,2.4,31.4c13.8,14.4,28.3,28.1,42.7,42.3c14.3-14.1,28.7-27.9,42.6-42.3C101.2,41.6,102.1,30.9,96.3,20.9z
			 M89,43.2c-3.2,4.4-7.3,8.3-11.2,12.2c-9,9.2-18.1,18.2-27.4,27.6c-13-12.9-25.7-24.9-37.7-37.4c-6.8-7.1-7.1-14.6-2.1-22.1
			c5-7.5,14-11,22.3-7.5c6.2,2.6,11.7,6.9,17.4,10.4c4.5-3,9.3-6.8,14.6-9.7c6.6-3.6,13.4-2.7,19.6,1.6C93.2,24.3,95.2,34.7,89,43.2
			z"/>
		<path class="st2" d="M89,43.2c-3.2,4.4-7.3,8.3-11.2,12.2c-9,9.2-18.1,18.2-27.4,27.6c-13-12.9-25.7-24.9-37.7-37.4
			c-6.8-7.1-7.1-14.6-2.1-22.1c5-7.5,14-11,22.3-7.5c6.2,2.6,11.7,6.9,17.4,10.4c4.5-3,9.3-6.8,14.6-9.7c6.6-3.6,13.4-2.7,19.6,1.6
			C93.2,24.3,95.2,34.7,89,43.2z"/>
	</g>
</g>
<g class="st0">
	<g class="st1">
		<path d="M21.4,96.5c0-5,0-9.8,0-14.6c0-2.9,0-5.9,0-8.8c0-1-0.2-1.5-1.1-2c-5.4-3-10.1-6.7-13.9-11.7C-2.2,48-2.1,33.8,6.6,22.5
			c5.2-6.8,12-11.5,20-14.5c17-6.4,34-6,50.6,1.6c7.4,3.4,13.6,8.4,18,15.4c7.1,11.3,6.4,24.2-1.8,34.8C87.6,67.3,79.9,72.1,71,75.2
			c-8,2.8-16.2,3.9-24.6,3.3c-0.5,0-1.2,0.2-1.6,0.5c-7.4,5.5-14.8,11-22.1,16.6C22.3,95.8,22,96.1,21.4,96.5z M28.6,82.2
			c0.6-0.4,0.9-0.7,1.3-0.9c4.2-3.2,8.4-6.4,12.7-9.5c0.5-0.4,1.2-0.6,1.8-0.5c6.8,0.6,13.5,0.2,20.1-1.6
			c8.5-2.2,16.2-6.1,22.1-12.8c7.8-8.8,8.3-20.4,1.3-29.8c-3.7-5-8.6-8.6-14.1-11.1C61.3,10.2,48.3,9.3,35,12.8
			c-7.9,2-14.9,5.7-20.6,11.6C4.9,34.2,4.7,47.5,14,57.5c3.3,3.5,7.1,6.3,11.4,8.4c1,0.5,2.5,0.8,2.9,1.6c0.5,0.9,0.2,2.3,0.2,3.5
			C28.6,74.7,28.6,78.3,28.6,82.2z"/>
		<path class="st3" d="M28.6,82.2c0-3.9,0-7.5,0-11.1c0-1.2,0.3-2.6-0.2-3.5c-0.5-0.8-1.9-1.1-2.9-1.6c-4.3-2.2-8.2-4.9-11.4-8.4
			c-9.3-10.1-9.1-23.3,0.3-33.2C20,18.4,27.1,14.8,35,12.8c13.3-3.4,26.3-2.6,38.8,3.2c5.6,2.6,10.4,6.2,14.1,11.1
			c7,9.4,6.5,21-1.3,29.8c-6,6.7-13.6,10.6-22.1,12.8c-6.6,1.7-13.3,2.2-20.1,1.6c-0.6-0.1-1.3,0.2-1.8,0.5
			c-4.3,3.1-8.5,6.3-12.7,9.5C29.5,81.5,29.1,81.8,28.6,82.2z"/>
	</g>
</g>
<g>
	<g>
		<path d="M55.6,100c-3.9,0-7.7,0-11.6,0c-3.2-1.4-4.6-3.9-4.9-7.2c-0.1-1.2-0.2-2.4-0.6-3.5c-0.2-0.7-0.9-1.4-1.5-1.9
			c-3.8-2.7-7.3-2.1-10.4,1.3c-0.3,0.4-0.8,0.6-1.3,0.9c-2.2,1.3-5.1,1.1-7-0.6c-2.4-2.3-4.8-4.7-7.1-7.1c-0.6-0.6-0.9-1.5-1.2-2.3
			c-0.9-3,0.7-5.2,2.5-7.2c2-2.3,2.4-4.2,1-7.2c-1.2-2.5-2.4-3.7-5.2-3.9C4.8,61,1.4,60,0,56c0-3.9,0-7.7,0-11.6
			c1.2-3.2,3.5-4.7,6.9-5c1.4-0.1,2.8-0.4,4.1-0.8c0.5-0.1,1.2-0.6,1.4-1.1c2.6-5.7,2.6-5.7-1-10.9c-0.2-0.3-0.4-0.6-0.6-0.9
			c-1.7-2.7-1.5-5.6,0.7-7.9c2-2.1,4.1-4.2,6.3-6.2c2.4-2.2,5.2-2.4,7.9-0.6c1,0.6,2.1,1.2,2.9,2.1c1.8,1.8,3.5,1.6,5.8,0.7
			c3.2-1.1,4.6-2.9,4.7-6.1c0.1-3.6,1.4-6.4,5-7.8c3.9,0,7.7,0,11.6,0c3.2,1.2,4.8,3.5,5,6.9c0.1,1.4,0.4,2.8,0.8,4.1
			c0.1,0.5,0.6,1.1,1.1,1.4c4.1,2.5,8,2.9,11.4-1.1c0.1-0.1,0.2-0.2,0.4-0.2c2.9-1.9,5.6-1.7,8.1,0.6c1.7,1.6,3.3,3.2,4.9,4.8
			c3.9,3.9,4.3,6.4,0.9,10.6c-2.4,3-3.2,5.5-1.2,9c0.9,1.5,1.5,2.5,3.4,2.7c3.8,0.4,8,0.7,9.7,5.2c0,3.9,0,7.7,0,11.6
			c-1,3.2-3.2,4.8-6.5,5.1c-1.5,0.1-2.9,0.3-4.4,0.7c-0.6,0.2-1.3,0.8-1.7,1.4c-0.8,1.5-1.4,3.1-2,4.7c-0.2,0.6-0.1,1.4,0.2,1.9
			c1.1,1.8,2.4,3.4,3.5,5.1c1.6,2.6,1.4,5.3-0.7,7.5c-1.1,1.3-2.4,2.4-3.6,3.6c-5.9,5.9-7,6.1-13.8,1.1c-1.8-1.3-3.1-1.4-5.3-0.7
			c-3.7,1.1-5,3.2-5.1,6.8C60.7,96.3,59.1,98.9,55.6,100z M14.9,22c1.9,2.7,3.5,5,5.2,7.2c1.1,1.4,1.1,2.7,0.3,4.3
			c-1.2,2.4-2.2,4.8-3,7.4c-0.6,1.9-1.7,2.8-3.6,3.1c-2.1,0.3-4.2,0.7-6.4,1c-1.3,0.2-1.9,0.8-1.8,2.2c0.1,2,0.1,4,0,6
			c-0.1,1.7,0.7,2.2,2.1,2.4c2.1,0.3,4.2,0.7,6.3,1c1.8,0.3,2.8,1.2,3.4,3c0.8,2.5,1.9,5,3.1,7.3c0.9,1.7,0.8,3-0.3,4.5
			c-1.4,1.8-2.7,3.7-4,5.6c-0.3,0.5-0.5,1.5-0.2,1.9c2,2.2,4.1,4.2,6.1,6.3c2.7-1.9,4.9-3.7,7.4-5.1c1-0.6,2.5-0.7,3.6-0.3
			c2.7,0.9,5.4,2,8,3.3c1,0.5,2.1,1.7,2.4,2.8c0.7,2.3,1,4.8,1.3,7.2c0.2,1.2,0.6,1.7,1.8,1.6c2.2-0.1,4.4-0.1,6.7,0
			c1.2,0,1.7-0.4,1.8-1.6c0.3-2.3,0.9-4.6,1.2-7c0.2-1.9,1.3-2.6,2.9-3.2c2.3-0.8,4.6-1.6,6.7-2.7c2.1-1.2,3.8-1.1,5.7,0.4
			c2,1.6,4.4,4.1,6.4,3.9c2-0.2,3.8-3.2,5.6-5c0.1-0.1,0.1-0.1,0.2-0.2c1-0.7,0.9-1.5,0.2-2.4c-1.4-1.9-2.7-3.9-4.1-5.8
			c-1-1.4-1-2.6-0.3-4.1c0.9-1.8,2.1-3.7,2.5-5.6c0.7-3.6,2.7-4.9,6.2-5.2c6.2-0.6,6.2-0.8,6.2-7c0-0.7,0-1.3,0-2
			c0.1-1.2-0.3-1.9-1.7-2c-2.3-0.3-4.6-0.9-7-1.2c-1.7-0.2-2.5-1.2-3.1-2.7c-0.9-2.6-2-5.1-3.1-7.5c-0.7-1.6-0.8-2.9,0.3-4.3
			c1.7-2.2,3.2-4.6,4.7-6.7c-2.4-2.3-4.6-4.6-7-7c-2.1,1.5-4.4,3.1-6.6,4.7c-1.3,1-2.6,1.1-4.1,0.4c-2.7-1.2-5.5-2.1-8.1-3.4
			c-1-0.5-2.1-1.6-2.4-2.7c-0.7-2.2-0.9-4.6-1.2-7C54.9,6,54.4,5.5,53,5.5c-2,0.1-4,0.1-6,0c-1.5-0.1-2.2,0.4-2.3,1.9
			c-0.3,2.2-0.8,4.4-1,6.6c-0.2,1.8-1.2,2.8-3,3.4c-2.6,0.9-5.1,2-7.5,3.2c-1.5,0.8-2.8,0.7-4.1-0.3c-2-1.4-3.9-2.9-6-4.2
			c-0.5-0.3-1.6-0.2-2,0.2C18.9,18.1,17,20,14.9,22z"/>
		<path class="st3" d="M14.9,22c2.1-2,4-4,6.1-5.7c0.4-0.4,1.5-0.5,2-0.2c2.1,1.3,4,2.8,6,4.2c1.3,1,2.6,1,4.1,0.3
			c2.4-1.2,5-2.3,7.5-3.2c1.8-0.6,2.7-1.6,3-3.4c0.3-2.2,0.8-4.4,1-6.6c0.2-1.5,0.9-2,2.3-1.9c2,0.1,4,0.1,6,0
			c1.4-0.1,2,0.5,2.1,1.9c0.3,2.3,0.6,4.7,1.2,7c0.3,1.1,1.4,2.2,2.4,2.7c2.6,1.3,5.5,2.2,8.1,3.4c1.5,0.7,2.8,0.6,4.1-0.4
			c2.2-1.7,4.5-3.3,6.6-4.7c2.4,2.4,4.6,4.6,7,7c-1.5,2.1-3,4.5-4.7,6.7c-1.1,1.4-1,2.7-0.3,4.3c1.2,2.5,2.2,5,3.1,7.5
			c0.6,1.5,1.3,2.5,3.1,2.7c2.3,0.3,4.6,0.9,7,1.2c1.4,0.2,1.8,0.8,1.7,2c0,0.7,0,1.3,0,2c0,6.2,0,6.4-6.2,7
			c-3.5,0.4-5.5,1.6-6.2,5.2c-0.4,2-1.6,3.8-2.5,5.6c-0.8,1.5-0.7,2.8,0.3,4.1c1.4,1.9,2.7,3.9,4.1,5.8c0.7,0.9,0.8,1.7-0.2,2.4
			c-0.1,0-0.1,0.1-0.2,0.2C81.8,81,80,84,78,84.2c-2,0.2-4.3-2.3-6.4-3.9c-1.9-1.5-3.5-1.6-5.7-0.4c-2.1,1.2-4.5,1.9-6.7,2.7
			c-1.6,0.6-2.7,1.3-2.9,3.2c-0.3,2.3-0.9,4.6-1.2,7c-0.2,1.2-0.6,1.7-1.8,1.6c-2.2-0.1-4.4-0.1-6.7,0c-1.2,0-1.7-0.4-1.8-1.6
			c-0.3-2.4-0.6-4.9-1.3-7.2c-0.3-1.1-1.4-2.2-2.4-2.8c-2.6-1.3-5.2-2.4-8-3.3c-1.1-0.3-2.6-0.2-3.6,0.3c-2.5,1.4-4.8,3.2-7.4,5.1
			C20.1,83,18,80.9,16,78.8c-0.3-0.3-0.1-1.4,0.2-1.9c1.2-1.9,2.6-3.8,4-5.6c1.1-1.5,1.2-2.8,0.3-4.5c-1.2-2.4-2.3-4.8-3.1-7.3
			c-0.6-1.8-1.6-2.7-3.4-3c-2.1-0.3-4.2-0.7-6.3-1c-1.5-0.2-2.3-0.7-2.1-2.4c0.2-2,0.1-4,0-6c-0.1-1.4,0.5-2,1.8-2.2
			c2.1-0.3,4.2-0.7,6.4-1c1.9-0.3,3-1.2,3.6-3.1c0.8-2.5,1.8-5,3-7.4c0.8-1.6,0.8-2.9-0.3-4.3C18.4,27,16.8,24.7,14.9,22z
			 M28.4,49.8c0,12.1,9.7,21.8,21.7,21.7c11.8-0.1,21.5-9.8,21.5-21.5c0-12-9.7-21.6-21.6-21.6C38.2,28.5,28.4,38.1,28.4,49.8z"/>
		<path d="M28.4,49.8c0-11.7,9.7-21.4,21.6-21.4c11.9,0,21.5,9.7,21.6,21.6c0,11.7-9.7,21.5-21.5,21.5
			C38.1,71.6,28.5,61.9,28.4,49.8z M50.2,65.9C59,65.7,66.1,58.6,66,50c-0.1-9-7.4-16.1-16.2-15.9C41,34.2,33.9,41.4,34.1,50
			C34.2,59.1,41.4,66.1,50.2,65.9z"/>
		<path class="st3" d="M50.2,65.9c-8.8,0.2-16-6.9-16.2-15.9c-0.2-8.6,6.9-15.8,15.7-15.9C58.6,33.9,65.8,41,66,50
			C66.1,58.6,59,65.7,50.2,65.9z"/>
	</g>
</g>
</svg>
